<svg xmlns="http://www.w3.org/2000/svg" version="1.1" xmlns:xlink="http://www.w3.org/1999/xlink" width="1000" height="1000"><style>
    #light-icon {
      display: inline;
    }
    #dark-icon {
      display: none;
    }

    @media (prefers-color-scheme: dark) {
      #light-icon {
        display: none;
      }
      #dark-icon {
        display: inline;
      }
    }
  </style><g id="light-icon"><svg xmlns="http://www.w3.org/2000/svg" version="1.1" xmlns:xlink="http://www.w3.org/1999/xlink" width="1000" height="1000"><g><g transform="matrix(0.9765625,0,0,0.9765625,0,0)"><svg xmlns="http://www.w3.org/2000/svg" version="1.1" xmlns:xlink="http://www.w3.org/1999/xlink" width="1024" height="1024"><svg id="_圖層_1" data-name="圖層 1" xmlns="http://www.w3.org/2000/svg" viewBox="0 0 1024 1024">
  <path d="M1024,511.96c0,130.03-48.45,248.65-128.28,338.89-36.54,41.46-79.67,76.84-127.7,104.64-39.62,22.89-82.58,40.71-127.95,52.36-40.96,10.57-83.83,16.15-128.03,16.15C229.26,1024,0,794.74,0,511.96v-.25C.17,229.09,229.34,0,512.04,0c44.2,0,87.07,5.58,128.03,16.15,45.37,11.65,88.32,29.47,127.95,52.36V511.71c0,94.73-51.45,177.48-127.95,221.77-37.71,21.73-81.41,34.21-128.03,34.21-141.43,0-256.06-114.63-256.06-255.98h127.7c0,70.84,57.44,128.28,128.37,128.28s124.12-53.36,128.03-120.62c.17-2.5,.25-5.08,.25-7.66s-.08-5.16-.25-7.66V149.92c-40.04-14.15-83.16-21.89-128.03-21.89-211.94,0-383.76,171.74-383.76,383.68s171.82,383.68,383.76,383.68c44.87,0,87.99-7.74,128.03-21.89,47.7-16.9,91.07-42.95,127.95-76,78.42-70.26,127.7-172.23,127.7-285.78V173.07c79.83,90.32,128.28,208.95,128.28,338.89Z"></path>
</svg></svg></g></g></svg></g><g id="dark-icon"><svg xmlns="http://www.w3.org/2000/svg" version="1.1" xmlns:xlink="http://www.w3.org/1999/xlink" width="1000" height="1000"><g clip-path="url(#SvgjsClipPath1016)"><rect width="1000" height="1000" fill="#ffffff"></rect><g transform="matrix(0.78125,0,0,0.78125,100,100)"><svg xmlns="http://www.w3.org/2000/svg" version="1.1" xmlns:xlink="http://www.w3.org/1999/xlink" width="1024" height="1024"><svg id="_圖層_1" data-name="圖層 1" xmlns="http://www.w3.org/2000/svg" viewBox="0 0 1024 1024">
  <path d="M1024,511.96c0,130.03-48.45,248.65-128.28,338.89-36.54,41.46-79.67,76.84-127.7,104.64-39.62,22.89-82.58,40.71-127.95,52.36-40.96,10.57-83.83,16.15-128.03,16.15C229.26,1024,0,794.74,0,511.96v-.25C.17,229.09,229.34,0,512.04,0c44.2,0,87.07,5.58,128.03,16.15,45.37,11.65,88.32,29.47,127.95,52.36V511.71c0,94.73-51.45,177.48-127.95,221.77-37.71,21.73-81.41,34.21-128.03,34.21-141.43,0-256.06-114.63-256.06-255.98h127.7c0,70.84,57.44,128.28,128.37,128.28s124.12-53.36,128.03-120.62c.17-2.5,.25-5.08,.25-7.66s-.08-5.16-.25-7.66V149.92c-40.04-14.15-83.16-21.89-128.03-21.89-211.94,0-383.76,171.74-383.76,383.68s171.82,383.68,383.76,383.68c44.87,0,87.99-7.74,128.03-21.89,47.7-16.9,91.07-42.95,127.95-76,78.42-70.26,127.7-172.23,127.7-285.78V173.07c79.83,90.32,128.28,208.95,128.28,338.89Z"></path>
</svg></svg></g></g><defs><clipPath id="SvgjsClipPath1016"><rect width="1000" height="1000" x="0" y="0" rx="500" ry="500"></rect></clipPath></defs></svg></g></svg>