<?xml version="1.0" encoding="UTF-8"?>
<svg id="_圖層_1" data-name="圖層 1" xmlns="http://www.w3.org/2000/svg" viewBox="0 0 40 40">
  <path d="M40,20c0,5.08-1.89,9.71-5.01,13.24-1.43,1.62-3.11,3-4.99,4.09-1.55,.89-3.23,1.59-5,2.05-1.6,.41-3.27,.63-5,.63C8.96,40,0,31.04,0,20H0C0,8.95,8.96,0,20,0c1.73,0,3.4,.22,5,.63,1.77,.46,3.45,1.15,5,2.05V19.99c0,3.7-2.01,6.93-5,8.66-1.47,.85-3.18,1.34-5,1.34-5.52,0-10-4.48-10-10h4.99c0,2.77,2.24,5.01,5.01,5.01s4.85-2.08,5-4.71c0-.1,0-.2,0-.3s0-.2,0-.3V5.86c-1.56-.55-3.25-.86-5-.86-8.28,0-14.99,6.71-14.99,14.99s6.71,14.99,14.99,14.99c1.75,0,3.44-.3,5-.86,1.86-.66,3.56-1.68,5-2.97,3.06-2.74,4.99-6.73,4.99-11.16V6.76c3.12,3.53,5.01,8.16,5.01,13.24Z"/>
</svg>